Alvarez' longest documentary examination of the Cuban Revolution, this contains exceptional interviews with Fidel, Raúl, Almeida, Vilma, Haydee, Celia and Faustino Perez, among other key players in the Revolution.

   General
      Complete name : La guerra necesaria.avi
      Format : AVI
      Format/Info : Audio Video Interleave
      File size : 1.33 GiB
      Duration : 1h 50mn
      Overall bit rate : 1 729 Kbps
      Writing application : FairUse Wizard - http://fairusewizard.com
      Writing library : The best and REALLY easy backup tool
   Video #0
      ID : 0
      Format : MPEG-4 Visual
      Format profile : AdvancedSimple@L5
      Format settings, BVOP : Yes
      Format settings, QPel : No
      Format settings, GMC : No warppoints
      Format settings, Matrix : Default (MPEG)
      Muxing mode : Packed bitstream
      Codec ID : XVID
      Codec ID/Hint : XviD
      Duration : 1h 50mn
      Bit rate : 1 528 Kbps
      Width : 624 pixels
      Height : 384 pixels
      Display aspect ratio : 1.625
      Frame rate : 23.976 fps
      Resolution : 24 bits
      Colorimetry : 4:2:0
      Scan type : Progressive
      Bits/(Pixel*Frame) : 0.266
      Stream size : 1.18 GiB (88%)
      Writing library : XviD 1.2.1 (UTC 2008-12-04)
   Audio #1
      ID : 1
      Format : AC-3
      Format/Info : Audio Coding 3
      Codec ID : 2000
      Duration : 1h 50mn
      Bit rate mode : Constant
      Bit rate : 192 Kbps
      Channel(s) : 2 channels
      Channel positions : L R
      Sampling rate : 48.0 KHz
      Stream size : 152 MiB (11%)
      Alignment : Split accross interleaves
      Interleave, duration : 42 ms (1.00 video frame)
      Interleave, preload duration : 500 ms
 
http://www.imdb.com/title/tt0150797/

Spanish audio; Multilanguage subpack (English, German, French, Italian, Spanish and Portuguese)

Santiago Alvarez - La guerra necesaria (1980)